<svg width="113" height="48" viewBox="0 0 113 48" fill="none" xmlns="http://www.w3.org/2000/svg">
<path d="M18.96 46.872C16.144 45.9333 14.0107 45.0587 12.56 44.248C11.1093 43.4373 10.384 42.776 10.384 42.264C10.384 41.7947 10.4267 41.304 10.512 40.792C10.5973 40.28 10.6827 39.5333 10.768 38.552C10.8533 37.5707 10.896 36.1627 10.896 34.328V19.096C10.896 15.8107 11.1307 13.2507 11.6 11.416H10.704C9.76533 11.416 8.848 11.608 7.952 11.992C7.09867 12.376 6.48 12.8027 6.096 13.272H4.752L0.592 7.128L1.04 6.104H24.528L27.6 10.584L24.4 13.272H23.312C22.5013 12.504 21.776 12.0133 21.136 11.8C20.5387 11.544 19.728 11.416 18.704 11.416H18.384C17.7013 13.1653 17.36 15.6187 17.36 18.776V35.736C17.36 37.5707 17.296 39.0427 17.168 40.152C17.0827 41.2187 17.04 42.0507 17.04 42.648C17.04 43.3733 17.9573 44.1627 19.792 45.016L18.96 46.872ZM48.777 46.68C47.753 46.3387 46.8143 45.9973 45.961 45.656C45.1077 45.272 44.297 44.8667 43.529 44.44C42.9317 45.0373 42.2063 45.528 41.353 45.912C40.5423 46.2533 39.6037 46.424 38.537 46.424C37.8117 46.424 36.745 46.1893 35.337 45.72C33.9717 45.2507 32.5637 44.6533 31.113 43.928C29.6623 43.16 28.425 42.328 27.401 41.432C26.4197 40.4933 25.929 39.576 25.929 38.68C25.929 37.5707 25.929 36.5893 25.929 35.736C25.9717 34.84 25.993 34.3067 25.993 34.136C25.993 31.6187 26.633 29.848 27.913 28.824C29.2357 27.7573 31.0703 27.224 33.417 27.224C34.6117 27.224 35.8917 27.3093 37.257 27.48C38.6223 27.6507 39.7317 27.8427 40.585 28.056C40.6277 26.8613 40.649 25.7307 40.649 24.664C40.6917 23.5547 40.713 22.7227 40.713 22.168C40.713 21.6987 40.585 21.3573 40.329 21.144C40.073 20.9307 39.6037 20.824 38.921 20.824C37.257 20.824 35.849 20.952 34.697 21.208C33.545 21.464 32.457 21.8907 31.433 22.488H30.217L26.057 16.408L26.569 15.384H37.257C38.1103 15.384 39.0703 15.7253 40.137 16.408C41.2463 17.048 42.3343 17.8587 43.401 18.84C44.4677 19.8213 45.3423 20.824 46.025 21.848C46.7077 22.872 47.049 23.768 47.049 24.536C47.049 25.944 47.0063 27.608 46.921 29.528C46.8357 31.448 46.7503 33.4107 46.665 35.416C46.5797 37.3787 46.537 39.1707 46.537 40.792C46.537 42.072 46.7503 42.968 47.177 43.48C47.6037 43.9493 48.4143 44.4187 49.609 44.888L48.777 46.68ZM32.265 38.68C32.265 39.7467 32.457 40.4293 32.841 40.728C33.225 40.984 33.6943 41.112 34.249 41.112C35.9983 41.112 37.449 40.664 38.601 39.768C39.7957 38.8293 40.393 37.3787 40.393 35.416C40.393 35.032 40.393 34.5627 40.393 34.008C40.4357 33.4533 40.457 32.8347 40.457 32.152C39.9877 32.024 39.4117 31.9387 38.729 31.896C38.0463 31.8533 37.4277 31.832 36.873 31.832C35.337 31.832 34.185 32.1733 33.417 32.856C32.649 33.5387 32.265 34.7333 32.265 36.44V38.68ZM61.7105 47.128C58.9798 46.104 56.8678 45.1867 55.3745 44.376C53.9238 43.5227 53.1985 42.7547 53.1985 42.072C53.1985 41.4747 53.2625 40.5573 53.3905 39.32C53.5612 38.04 53.6465 36.8027 53.6465 35.608V18.392C53.6465 15.832 53.7318 13.4853 53.9025 11.352C54.1158 9.176 54.3718 7.42666 54.6705 6.104H51.9185L48.3985 1.944L48.8465 0.919998H57.1665L60.9425 5.784C60.6438 7.448 60.4092 9.34667 60.2385 11.48C60.0678 13.5707 59.9825 15.704 59.9825 17.88V36.312C59.9825 37.848 59.9185 39.2133 59.7905 40.408C59.6625 41.56 59.5985 42.4347 59.5985 43.032C59.5985 43.4587 59.7478 43.8 60.0465 44.056C60.3878 44.2693 61.1985 44.7173 62.4785 45.4L61.7105 47.128ZM89.0895 46.68C88.0655 46.3387 87.1268 45.9973 86.2735 45.656C85.4202 45.272 84.6095 44.8667 83.8415 44.44C83.2442 45.0373 82.5188 45.528 81.6655 45.912C80.8548 46.2533 79.9162 46.424 78.8495 46.424C78.1242 46.424 77.0575 46.1893 75.6495 45.72C74.2842 45.2507 72.8762 44.6533 71.4255 43.928C69.9748 43.16 68.7375 42.328 67.7135 41.432C66.7322 40.4933 66.2415 39.576 66.2415 38.68C66.2415 37.5707 66.2415 36.5893 66.2415 35.736C66.2842 34.84 66.3055 34.3067 66.3055 34.136C66.3055 31.6187 66.9455 29.848 68.2255 28.824C69.5482 27.7573 71.3828 27.224 73.7295 27.224C74.9242 27.224 76.2042 27.3093 77.5695 27.48C78.9348 27.6507 80.0442 27.8427 80.8975 28.056C80.9402 26.8613 80.9615 25.7307 80.9615 24.664C81.0042 23.5547 81.0255 22.7227 81.0255 22.168C81.0255 21.6987 80.8975 21.3573 80.6415 21.144C80.3855 20.9307 79.9162 20.824 79.2335 20.824C77.5695 20.824 76.1615 20.952 75.0095 21.208C73.8575 21.464 72.7695 21.8907 71.7455 22.488H70.5295L66.3695 16.408L66.8815 15.384H77.5695C78.4228 15.384 79.3828 15.7253 80.4495 16.408C81.5588 17.048 82.6468 17.8587 83.7135 18.84C84.7802 19.8213 85.6548 20.824 86.3375 21.848C87.0202 22.872 87.3615 23.768 87.3615 24.536C87.3615 25.944 87.3188 27.608 87.2335 29.528C87.1482 31.448 87.0628 33.4107 86.9775 35.416C86.8922 37.3787 86.8495 39.1707 86.8495 40.792C86.8495 42.072 87.0628 42.968 87.4895 43.48C87.9162 43.9493 88.7268 44.4187 89.9215 44.888L89.0895 46.68ZM72.5775 38.68C72.5775 39.7467 72.7695 40.4293 73.1535 40.728C73.5375 40.984 74.0068 41.112 74.5615 41.112C76.3108 41.112 77.7615 40.664 78.9135 39.768C80.1082 38.8293 80.7055 37.3787 80.7055 35.416C80.7055 35.032 80.7055 34.5627 80.7055 34.008C80.7482 33.4533 80.7695 32.8347 80.7695 32.152C80.3002 32.024 79.7242 31.9387 79.0415 31.896C78.3588 31.8533 77.7402 31.832 77.1855 31.832C75.6495 31.832 74.4975 32.1733 73.7295 32.856C72.9615 33.5387 72.5775 34.7333 72.5775 36.44V38.68ZM103.495 46.808C100.252 46.808 97.7137 45.7627 95.879 43.672C94.0443 41.5387 92.7643 38.6587 92.039 35.032L94.087 34.456C94.8977 36.504 95.815 37.9547 96.839 38.808C97.9057 39.6613 99.335 40.088 101.127 40.088C103.175 40.088 104.903 39.512 106.311 38.36C107.762 37.208 108.487 35.8 108.487 34.136C108.487 33.1973 108.146 32.728 107.463 32.728C106.908 32.728 106.098 32.856 105.031 33.112C104.007 33.368 102.983 33.6453 101.959 33.944C100.935 34.2 100.167 34.328 99.655 34.328C98.887 34.328 98.0977 33.9653 97.287 33.24C96.519 32.5147 95.7937 31.5973 95.111 30.488C94.4283 29.336 93.8737 28.1413 93.447 26.904C93.0203 25.6667 92.807 24.5147 92.807 23.448C92.807 20.9307 93.5963 18.8187 95.175 17.112C96.7963 15.4053 99.1003 14.552 102.087 14.552C104.647 14.552 106.738 15.2347 108.359 16.6C109.98 17.9653 111.218 20.056 112.071 22.872L109.831 23.64C108.679 21.8053 106.93 20.888 104.583 20.888C102.535 20.888 100.807 21.4213 99.399 22.488C97.991 23.5547 97.287 24.8987 97.287 26.52C97.287 27.3733 97.6923 27.8 98.503 27.8C99.143 27.8 99.975 27.672 100.999 27.416C102.023 27.1173 103.047 26.84 104.071 26.584C105.095 26.328 105.927 26.2 106.567 26.2C107.548 26.2 108.508 26.7547 109.447 27.864C110.386 28.9733 111.154 30.3813 111.751 32.088C112.348 33.7947 112.647 35.544 112.647 37.336C112.647 40.1947 111.858 42.4987 110.279 44.248C108.7 45.9547 106.439 46.808 103.495 46.808Z" fill="#FF7C7C"/>
</svg>
